<mxfile host="www.draw.io" modified="2020-03-06T06:23:58.090Z" agent="Mozilla/5.0 (Windows NT 10.0; Win64; x64) AppleWebKit/537.36 (KHTML, like Gecko) Chrome/80.0.3987.122 Safari/537.36" etag="sOYuf4LvFuz3KeqlpvGD" version="12.8.1" type="github">
  <diagram id="ib67aEugBml_CZ-fISX1" name="Page-1">
    <mxGraphModel dx="1038" dy="499" grid="1" gridSize="10" guides="1" tooltips="1" connect="1" arrows="1" fold="1" page="1" pageScale="1" pageWidth="850" pageHeight="1100" math="0" shadow="0">
      <root>
        <mxCell id="0" />
        <mxCell id="1" parent="0" />
        <mxCell id="eAcOTcTCXuirqR0JLokp-1" value="librarian" style="shape=umlActor;verticalLabelPosition=bottom;labelBackgroundColor=#ffffff;verticalAlign=top;html=1;outlineConnect=0;" parent="1" vertex="1">
          <mxGeometry x="160" y="220" width="30" height="60" as="geometry" />
        </mxCell>
        <mxCell id="eAcOTcTCXuirqR0JLokp-2" value="Add Book Copy" style="ellipse;whiteSpace=wrap;html=1;" parent="1" vertex="1">
          <mxGeometry x="360" y="40" width="120" height="80" as="geometry" />
        </mxCell>
        <mxCell id="eAcOTcTCXuirqR0JLokp-3" value="Add New Book" style="ellipse;whiteSpace=wrap;html=1;" parent="1" vertex="1">
          <mxGeometry x="360" y="160" width="120" height="80" as="geometry" />
        </mxCell>
        <mxCell id="eAcOTcTCXuirqR0JLokp-4" value="Create New library Member" style="ellipse;whiteSpace=wrap;html=1;" parent="1" vertex="1">
          <mxGeometry x="360" y="280" width="120" height="80" as="geometry" />
        </mxCell>
        <mxCell id="eAcOTcTCXuirqR0JLokp-5" value="Edit Member Info" style="ellipse;whiteSpace=wrap;html=1;" parent="1" vertex="1">
          <mxGeometry x="360" y="400" width="120" height="80" as="geometry" />
        </mxCell>
        <mxCell id="eAcOTcTCXuirqR0JLokp-6" value="Library System" style="shape=umlActor;verticalLabelPosition=bottom;labelBackgroundColor=#ffffff;verticalAlign=top;html=1;outlineConnect=0;" parent="1" vertex="1">
          <mxGeometry x="650" y="220" width="30" height="60" as="geometry" />
        </mxCell>
        <mxCell id="eAcOTcTCXuirqR0JLokp-8" value="" style="endArrow=classic;html=1;entryX=0.09;entryY=0.78;entryDx=0;entryDy=0;entryPerimeter=0;" parent="1" target="eAcOTcTCXuirqR0JLokp-2" edge="1">
          <mxGeometry width="50" height="50" relative="1" as="geometry">
            <mxPoint x="200" y="240" as="sourcePoint" />
            <mxPoint x="530" y="240" as="targetPoint" />
          </mxGeometry>
        </mxCell>
        <mxCell id="eAcOTcTCXuirqR0JLokp-9" value="" style="endArrow=classic;html=1;entryX=0;entryY=0.5;entryDx=0;entryDy=0;" parent="1" target="eAcOTcTCXuirqR0JLokp-3" edge="1">
          <mxGeometry width="50" height="50" relative="1" as="geometry">
            <mxPoint x="200" y="250" as="sourcePoint" />
            <mxPoint x="250" y="200" as="targetPoint" />
          </mxGeometry>
        </mxCell>
        <mxCell id="eAcOTcTCXuirqR0JLokp-10" value="" style="endArrow=classic;html=1;entryX=0;entryY=0.5;entryDx=0;entryDy=0;" parent="1" target="eAcOTcTCXuirqR0JLokp-4" edge="1">
          <mxGeometry width="50" height="50" relative="1" as="geometry">
            <mxPoint x="200" y="270" as="sourcePoint" />
            <mxPoint x="530" y="240" as="targetPoint" />
          </mxGeometry>
        </mxCell>
        <mxCell id="eAcOTcTCXuirqR0JLokp-11" value="" style="endArrow=classic;html=1;entryX=0.017;entryY=0.4;entryDx=0;entryDy=0;entryPerimeter=0;" parent="1" target="eAcOTcTCXuirqR0JLokp-5" edge="1">
          <mxGeometry width="50" height="50" relative="1" as="geometry">
            <mxPoint x="200" y="280" as="sourcePoint" />
            <mxPoint x="530" y="240" as="targetPoint" />
          </mxGeometry>
        </mxCell>
        <mxCell id="eAcOTcTCXuirqR0JLokp-12" value="" style="endArrow=classic;html=1;exitX=1;exitY=1;exitDx=0;exitDy=0;" parent="1" source="eAcOTcTCXuirqR0JLokp-2" edge="1">
          <mxGeometry width="50" height="50" relative="1" as="geometry">
            <mxPoint x="480" y="290" as="sourcePoint" />
            <mxPoint x="640" y="240" as="targetPoint" />
          </mxGeometry>
        </mxCell>
        <mxCell id="eAcOTcTCXuirqR0JLokp-13" value="" style="endArrow=classic;html=1;exitX=1;exitY=0.5;exitDx=0;exitDy=0;" parent="1" source="eAcOTcTCXuirqR0JLokp-3" edge="1">
          <mxGeometry width="50" height="50" relative="1" as="geometry">
            <mxPoint x="480" y="290" as="sourcePoint" />
            <mxPoint x="640" y="250" as="targetPoint" />
          </mxGeometry>
        </mxCell>
        <mxCell id="eAcOTcTCXuirqR0JLokp-14" value="" style="endArrow=classic;html=1;exitX=1;exitY=0.5;exitDx=0;exitDy=0;" parent="1" source="eAcOTcTCXuirqR0JLokp-4" edge="1">
          <mxGeometry width="50" height="50" relative="1" as="geometry">
            <mxPoint x="480" y="290" as="sourcePoint" />
            <mxPoint x="640" y="270" as="targetPoint" />
          </mxGeometry>
        </mxCell>
        <mxCell id="eAcOTcTCXuirqR0JLokp-16" value="" style="endArrow=classic;html=1;exitX=0.983;exitY=0.37;exitDx=0;exitDy=0;exitPerimeter=0;" parent="1" source="eAcOTcTCXuirqR0JLokp-5" edge="1">
          <mxGeometry width="50" height="50" relative="1" as="geometry">
            <mxPoint x="480" y="290" as="sourcePoint" />
            <mxPoint x="640" y="280" as="targetPoint" />
          </mxGeometry>
        </mxCell>
      </root>
    </mxGraphModel>
  </diagram>
</mxfile>
